<svg width="16" height="16" viewBox="0 0 16 16" fill="none" xmlns="http://www.w3.org/2000/svg">
<path d="M12.6667 13.3333C12.6667 14.0733 12.0733 14.6667 11.3333 14.6667C10.9797 14.6667 10.6406 14.5262 10.3905 14.2762C10.1405 14.0261 10 13.687 10 13.3333C10 12.5933 10.5933 12 11.3333 12C11.687 12 12.0261 12.1405 12.2761 12.3905C12.5262 12.6406 12.6667 12.9797 12.6667 13.3333ZM4.66667 12C3.92667 12 3.33334 12.5933 3.33334 13.3333C3.33334 13.687 3.47381 14.0261 3.72386 14.2762C3.97391 14.5262 4.31305 14.6667 4.66667 14.6667C5.40667 14.6667 6 14.0733 6 13.3333C6 12.5933 5.40667 12 4.66667 12ZM4.8 9.75334L4.78 9.83334C4.78 9.92668 4.85334 10 4.94667 10H12.6667V11.3333H4.66667C4.31305 11.3333 3.97391 11.1929 3.72386 10.9428C3.47381 10.6928 3.33334 10.3536 3.33334 10C3.33334 9.76668 3.39334 9.54668 3.49334 9.36001L4.4 7.72668L2.00001 2.66668H0.666672V1.33334H2.84667L3.47334 2.66668H13.3333C13.7 2.66668 14 2.96668 14 3.33334C14 3.44668 13.9667 3.56001 13.92 3.66668L11.5333 7.98001C11.3067 8.38668 10.8667 8.66668 10.3667 8.66668H5.4L4.8 9.75334ZM5.66667 7.33334H6.66667V6.00001H5.04L5.66667 7.33334ZM7.33334 6.00001V7.33334H9.33334V6.00001H7.33334ZM9.33334 5.33334V4.00001H7.33334V5.33334H9.33334ZM11.4067 6.00001H10V7.33334H10.6667L11.4067 6.00001ZM12.52 4.00001H10V5.33334H11.78L12.52 4.00001ZM4.09334 4.00001L4.72 5.33334H6.66667V4.00001H4.09334Z" fill="#CAF7E3"/>
</svg>
