<svg width="51" height="51" viewBox="0 0 51 51" fill="none" xmlns="http://www.w3.org/2000/svg">
<path d="M42.1667 4.66675H8.85417C6.56251 4.66675 4.68751 6.54175 4.68751 8.83342L4.66667 46.3334L13 38.0001H42.1667C44.4583 38.0001 46.3333 36.1251 46.3333 33.8334V8.83342C46.3333 6.54175 44.4583 4.66675 42.1667 4.66675ZM25.5 13.0001C27.7917 13.0001 29.6667 14.8751 29.6667 17.1667C29.6667 19.4584 27.7917 21.3334 25.5 21.3334C23.2083 21.3334 21.3333 19.4584 21.3333 17.1667C21.3333 14.8751 23.2083 13.0001 25.5 13.0001ZM33.8333 29.6667H17.1667V28.4792C17.1667 26.7917 18.1667 25.2917 19.7083 24.6251C21.5351 23.8278 23.5068 23.4163 25.5 23.4163C27.4932 23.4163 29.4649 23.8278 31.2917 24.6251C32.0464 24.9477 32.6898 25.485 33.1416 26.1703C33.5935 26.8555 33.8341 27.6584 33.8333 28.4792V29.6667Z" fill="black"/>
</svg>
