<svg width="51" height="51" viewBox="0 0 51 51" fill="none" xmlns="http://www.w3.org/2000/svg">
<path d="M42.1667 17.1666H8.83334V12.9999H42.1667V17.1666ZM42.1667 37.9999H8.83334V25.4999H42.1667V37.9999ZM42.1667 8.83325H8.83334C6.52084 8.83325 4.66667 10.6874 4.66667 12.9999V37.9999C4.66667 39.105 5.10566 40.1648 5.88706 40.9462C6.66846 41.7276 7.72827 42.1666 8.83334 42.1666H42.1667C43.2717 42.1666 44.3316 41.7276 45.113 40.9462C45.8944 40.1648 46.3333 39.105 46.3333 37.9999V12.9999C46.3333 11.8948 45.8944 10.835 45.113 10.0536C44.3316 9.27224 43.2717 8.83325 42.1667 8.83325Z" fill="black"/>
</svg>
