<svg width="114" height="54" viewBox="0 0 114 54" fill="none" xmlns="http://www.w3.org/2000/svg">
<path d="M84.3324 31C100.408 31 98.99 39 98.99 39H9.15326C9.15326 39 68.2564 31 84.3324 31Z" fill="#FFD6D6"/>
<path d="M10.4457 37C10.2457 37 10.0757 36.93 9.93574 36.79C9.79574 36.65 9.72574 36.48 9.72574 36.28V16.72C9.72574 16.5 9.79574 16.33 9.93574 16.21C10.0757 16.07 10.2457 16 10.4457 16H13.2357C13.4557 16 13.6257 16.07 13.7457 16.21C13.8857 16.33 13.9557 16.5 13.9557 16.72V33.43H23.4657C23.6857 33.43 23.8657 33.5 24.0057 33.64C24.1457 33.78 24.2157 33.96 24.2157 34.18V36.28C24.2157 36.5 24.1457 36.68 24.0057 36.82C23.8657 36.94 23.6857 37 23.4657 37H10.4457ZM33.4337 37.3C31.0937 37.3 29.2837 36.7 28.0037 35.5C26.7237 34.28 26.0337 32.62 25.9337 30.52L25.9037 29.2L25.9337 27.88C26.0337 25.8 26.7337 24.15 28.0337 22.93C29.3337 21.71 31.1337 21.1 33.4337 21.1C35.7337 21.1 37.5337 21.71 38.8337 22.93C40.1337 24.15 40.8337 25.8 40.9337 27.88C40.9537 28.12 40.9637 28.56 40.9637 29.2C40.9637 29.84 40.9537 30.28 40.9337 30.52C40.8337 32.62 40.1437 34.28 38.8637 35.5C37.5837 36.7 35.7737 37.3 33.4337 37.3ZM33.4337 34.33C34.4937 34.33 35.3137 34 35.8937 33.34C36.4737 32.66 36.7937 31.67 36.8537 30.37C36.8737 30.17 36.8837 29.78 36.8837 29.2C36.8837 28.62 36.8737 28.23 36.8537 28.03C36.7937 26.73 36.4737 25.75 35.8937 25.09C35.3137 24.41 34.4937 24.07 33.4337 24.07C32.3737 24.07 31.5537 24.41 30.9737 25.09C30.3937 25.75 30.0737 26.73 30.0137 28.03L29.9837 29.2L30.0137 30.37C30.0737 31.67 30.3937 32.66 30.9737 33.34C31.5537 34 32.3737 34.33 33.4337 34.33ZM45.0076 37C44.8076 37 44.6376 36.93 44.4976 36.79C44.3576 36.65 44.2876 36.48 44.2876 36.28V22.12C44.2876 21.92 44.3576 21.75 44.4976 21.61C44.6376 21.47 44.8076 21.4 45.0076 21.4H47.4676C47.6676 21.4 47.8376 21.47 47.9776 21.61C48.1176 21.75 48.1876 21.92 48.1876 22.12V23.35C49.3676 21.85 51.0376 21.1 53.1976 21.1C55.0376 21.1 56.4976 21.71 57.5776 22.93C58.6576 24.13 59.1976 25.77 59.1976 27.85V36.28C59.1976 36.48 59.1276 36.65 58.9876 36.79C58.8676 36.93 58.6976 37 58.4776 37H55.8376C55.6376 37 55.4676 36.93 55.3276 36.79C55.1876 36.65 55.1176 36.48 55.1176 36.28V28.03C55.1176 26.85 54.8276 25.94 54.2476 25.3C53.6876 24.64 52.8676 24.31 51.7876 24.31C50.7276 24.31 49.8876 24.64 49.2676 25.3C48.6676 25.96 48.3676 26.87 48.3676 28.03V36.28C48.3676 36.48 48.2976 36.65 48.1576 36.79C48.0376 36.93 47.8676 37 47.6476 37H45.0076ZM68.9183 37.3C67.4183 37.3 66.1583 37.08 65.1383 36.64C64.1183 36.18 63.3583 35.65 62.8583 35.05C62.3783 34.43 62.1383 33.9 62.1383 33.46C62.1383 33.26 62.2083 33.1 62.3483 32.98C62.4883 32.86 62.6483 32.8 62.8283 32.8H65.1983C65.3783 32.8 65.5283 32.87 65.6483 33.01C65.7283 33.07 65.9383 33.25 66.2783 33.55C66.6183 33.87 67.0183 34.12 67.4783 34.3C67.9383 34.48 68.4483 34.57 69.0083 34.57C69.8083 34.57 70.4683 34.41 70.9883 34.09C71.5083 33.77 71.7683 33.33 71.7683 32.77C71.7683 32.35 71.6483 32.01 71.4083 31.75C71.1883 31.49 70.7783 31.26 70.1783 31.06C69.5783 30.84 68.6883 30.61 67.5083 30.37C65.8083 30.01 64.5483 29.46 63.7283 28.72C62.9283 27.98 62.5283 27 62.5283 25.78C62.5283 24.98 62.7683 24.23 63.2483 23.53C63.7283 22.81 64.4383 22.23 65.3783 21.79C66.3383 21.33 67.4783 21.1 68.7983 21.1C70.1383 21.1 71.2983 21.32 72.2783 21.76C73.2583 22.18 73.9983 22.69 74.4983 23.29C75.0183 23.87 75.2783 24.39 75.2783 24.85C75.2783 25.03 75.2083 25.19 75.0683 25.33C74.9483 25.45 74.7983 25.51 74.6183 25.51H72.3983C72.2383 25.51 72.0683 25.44 71.8883 25.3C71.7483 25.2 71.5283 25.01 71.2283 24.73C70.9283 24.45 70.5783 24.23 70.1783 24.07C69.7783 23.91 69.3083 23.83 68.7683 23.83C68.0283 23.83 67.4483 23.99 67.0283 24.31C66.6283 24.63 66.4283 25.05 66.4283 25.57C66.4283 25.95 66.5283 26.26 66.7283 26.5C66.9283 26.74 67.3183 26.97 67.8983 27.19C68.4783 27.41 69.3483 27.63 70.5083 27.85C72.4283 28.23 73.7983 28.82 74.6183 29.62C75.4583 30.42 75.8783 31.4 75.8783 32.56C75.8783 33.96 75.2683 35.1 74.0483 35.98C72.8283 36.86 71.1183 37.3 68.9183 37.3ZM79.6951 37C79.4951 37 79.3251 36.93 79.1851 36.79C79.0451 36.65 78.9751 36.48 78.9751 36.28V22.15C78.9751 21.95 79.0451 21.78 79.1851 21.64C79.3251 21.48 79.4951 21.4 79.6951 21.4H82.1251C82.3451 21.4 82.5251 21.47 82.6651 21.61C82.8051 21.75 82.8751 21.93 82.8751 22.15V23.38C83.3551 22.74 83.9551 22.25 84.6751 21.91C85.4151 21.57 86.2551 21.4 87.1951 21.4H88.4251C88.6451 21.4 88.8151 21.47 88.9351 21.61C89.0751 21.73 89.1451 21.9 89.1451 22.12V24.28C89.1451 24.48 89.0751 24.65 88.9351 24.79C88.8151 24.93 88.6451 25 88.4251 25H86.0851C85.1451 25 84.4051 25.27 83.8651 25.81C83.3251 26.35 83.0551 27.09 83.0551 28.03V36.28C83.0551 36.48 82.9851 36.65 82.8451 36.79C82.7051 36.93 82.5251 37 82.3051 37H79.6951ZM97.9998 37.3C95.7798 37.3 94.0098 36.66 92.6898 35.38C91.3898 34.08 90.6998 32.26 90.6198 29.92L90.5898 29.17L90.6198 28.42C90.7198 26.14 91.4198 24.35 92.7198 23.05C94.0398 21.75 95.7998 21.1 97.9998 21.1C100.36 21.1 102.18 21.82 103.46 23.26C104.76 24.7 105.41 26.62 105.41 29.02V29.65C105.41 29.85 105.34 30.02 105.2 30.16C105.06 30.3 104.88 30.37 104.66 30.37H94.6998V30.61C94.7398 31.71 95.0398 32.64 95.5998 33.4C96.1798 34.14 96.9698 34.51 97.9698 34.51C99.1498 34.51 100.1 34.05 100.82 33.13C101 32.91 101.14 32.77 101.24 32.71C101.36 32.65 101.53 32.62 101.75 32.62H104.33C104.51 32.62 104.66 32.68 104.78 32.8C104.92 32.9 104.99 33.03 104.99 33.19C104.99 33.67 104.7 34.24 104.12 34.9C103.56 35.54 102.75 36.1 101.69 36.58C100.63 37.06 99.3998 37.3 97.9998 37.3ZM101.33 27.85V27.76C101.33 26.58 101.03 25.63 100.43 24.91C99.8498 24.19 99.0398 23.83 97.9998 23.83C96.9598 23.83 96.1498 24.19 95.5698 24.91C94.9898 25.63 94.6998 26.58 94.6998 27.76V27.85H101.33Z" fill="black"/>
</svg>
