<svg width="51" height="51" viewBox="0 0 51 51" fill="none" xmlns="http://www.w3.org/2000/svg">
<path d="M38 39.0416C37.1712 39.0416 36.3763 38.7123 35.7903 38.1263C35.2042 37.5402 34.875 36.7454 34.875 35.9166C34.875 35.0878 35.2042 34.2929 35.7903 33.7069C36.3763 33.1208 37.1712 32.7916 38 32.7916C38.8288 32.7916 39.6236 33.1208 40.2097 33.7069C40.7957 34.2929 41.125 35.0878 41.125 35.9166C41.125 36.7454 40.7957 37.5402 40.2097 38.1263C39.6236 38.7123 38.8288 39.0416 38 39.0416ZM41.125 20.2916L45.2083 25.4999H35.9166V20.2916H41.125ZM13 39.0416C12.1712 39.0416 11.3763 38.7123 10.7903 38.1263C10.2042 37.5402 9.87498 36.7454 9.87498 35.9166C9.87498 35.0878 10.2042 34.2929 10.7903 33.7069C11.3763 33.1208 12.1712 32.7916 13 32.7916C13.8288 32.7916 14.6236 33.1208 15.2097 33.7069C15.7957 34.2929 16.125 35.0878 16.125 35.9166C16.125 36.7454 15.7957 37.5402 15.2097 38.1263C14.6236 38.7123 13.8288 39.0416 13 39.0416ZM42.1666 17.1666H35.9166V8.83325H6.74998C4.43748 8.83325 2.58331 10.6874 2.58331 12.9999V35.9166H6.74998C6.74998 37.5742 7.40846 39.1639 8.58056 40.336C9.75266 41.5081 11.3424 42.1666 13 42.1666C14.6576 42.1666 16.2473 41.5081 17.4194 40.336C18.5915 39.1639 19.25 37.5742 19.25 35.9166H31.75C31.75 37.5742 32.4085 39.1639 33.5806 40.336C34.7527 41.5081 36.3424 42.1666 38 42.1666C39.6576 42.1666 41.2473 41.5081 42.4194 40.336C43.5915 39.1639 44.25 37.5742 44.25 35.9166H48.4166V25.4999L42.1666 17.1666Z" fill="black"/>
</svg>
